<?xml version="1.0" standalone="no"?>
<!DOCTYPE svg PUBLIC "-//W3C//DTD SVG 20010904//EN"
 "http://www.w3.org/TR/2001/REC-SVG-20010904/DTD/svg10.dtd">
<svg version="1.0" xmlns="http://www.w3.org/2000/svg"
 width="512.000000pt" height="512.000000pt" viewBox="0 0 512.000000 512.000000"
 preserveAspectRatio="xMidYMid meet">

<g transform="translate(0.000000,512.000000) scale(0.100000,-0.100000)"
fill="#000000" stroke="none">
<path d="M2350 5110 c-600 -55 -1138 -299 -1564 -710 -412 -398 -669 -897
-758 -1475 -30 -199 -30 -531 0 -730 113 -730 506 -1355 1107 -1757 l120 -81
6 519 c7 568 6 562 70 694 44 89 161 206 249 248 112 54 162 62 435 69 140 3
256 10 263 16 6 5 12 24 12 42 0 31 -4 34 -107 86 -94 46 -120 65 -199 143
-74 75 -99 107 -136 182 -25 50 -54 123 -64 162 l-18 70 -49 0 c-104 1 -188
88 -188 196 0 90 46 158 127 188 l34 12 0 247 c0 341 22 454 120 621 58 98
192 230 290 285 144 81 269 113 447 113 334 0 609 -169 753 -465 74 -154 83
-204 88 -527 l4 -277 34 -11 c18 -6 51 -32 73 -57 108 -122 32 -309 -129 -321
l-58 -4 -17 -69 c-56 -226 -245 -441 -457 -517 -45 -16 -48 -19 -48 -53 0 -20
6 -41 13 -47 7 -6 111 -11 260 -14 l247 -3 0 98 c0 113 14 154 64 190 30 21
38 22 351 25 358 3 367 1 412 -67 l23 -34 0 -599 c0 -663 2 -644 -63 -690 -27
-20 -47 -23 -159 -26 l-128 -4 0 -224 c0 -123 2 -224 5 -224 22 0 233 143 354
240 428 344 745 842 875 1371 51 208 69 374 69 619 0 251 -18 407 -72 620
-235 925 -951 1638 -1875 1865 -240 58 -585 86 -816 65z"/>
<path d="M2840 3161 c-99 -32 -176 -107 -204 -196 l-18 -55 -44 0 -44 0 0 -40
0 -40 43 0 43 0 17 -54 c20 -63 80 -135 144 -173 65 -38 175 -44 255 -13 70
26 148 106 172 176 49 145 -14 302 -149 371 -53 28 -166 40 -215 24z m175 -99
c91 -44 139 -148 114 -246 -22 -89 -119 -166 -209 -166 -92 0 -188 78 -210
170 -42 175 143 322 305 242z"/>
<path d="M2852 2927 c-46 -49 -12 -127 54 -127 39 0 74 36 74 76 0 65 -84 98
-128 51z"/>
<path d="M2122 2927 c-58 -61 5 -151 83 -121 10 4 23 21 30 37 33 79 -56 144
-113 84z"/>
</g>
</svg>
